<svg aria-hidden="true" style="position: absolute; width: 0; height: 0; overflow: hidden;" version="1.1" xmlns="http://www.w3.org/2000/svg" xmlns:xlink="http://www.w3.org/1999/xlink">
<defs>
<symbol id="icon-bell" viewBox="0 0 32 32">
<path d="M24 10.667c0-2.122-0.843-4.157-2.343-5.657s-3.535-2.343-5.657-2.343-4.157 0.843-5.657 2.343c-1.5 1.5-2.343 3.535-2.343 5.657 0 9.333-4 12-4 12h24c0 0-4-2.667-4-12z"></path>
<path d="M18.307 28c-0.234 0.404-0.571 0.74-0.976 0.973s-0.864 0.356-1.331 0.356-0.926-0.123-1.331-0.356c-0.405-0.233-0.741-0.569-0.976-0.973"></path>
</symbol>
<symbol id="icon-dashboard-interface" viewBox="0 0 32 32">
<path d="M30 8h-28c-1.103 0-2-0.897-2-2v-4c0-1.103 0.897-2 2-2h28c1.103 0 2 0.897 2 2v4c0 1.103-0.897 2-2 2zM2 1.333c-0.368 0-0.667 0.299-0.667 0.667v4c0 0.368 0.299 0.667 0.667 0.667h28c0.368 0 0.667-0.299 0.667-0.667v-4c0-0.368-0.299-0.667-0.667-0.667h-28z"></path>
<path d="M12.667 32h-10.667c-1.103 0-2-0.897-2-2v-17.333c0-1.103 0.897-2 2-2h10.667c1.103 0 2 0.897 2 2v17.333c0 1.103-0.897 2-2 2zM2 12c-0.368 0-0.667 0.299-0.667 0.667v17.333c0 0.368 0.299 0.667 0.667 0.667h10.667c0.368 0 0.667-0.299 0.667-0.667v-17.333c0-0.368-0.299-0.667-0.667-0.667h-10.667z"></path>
<path d="M30 20h-10.667c-1.103 0-2-0.897-2-2v-5.333c0-1.103 0.897-2 2-2h10.667c1.103 0 2 0.897 2 2v5.333c0 1.103-0.897 2-2 2zM19.334 12c-0.368 0-0.667 0.299-0.667 0.667v5.333c0 0.368 0.299 0.667 0.667 0.667h10.667c0.368 0 0.667-0.299 0.667-0.667v-5.333c0-0.368-0.299-0.667-0.667-0.667h-10.667z"></path>
<path d="M30 32h-10.667c-1.103 0-2-0.897-2-2v-5.333c0-1.103 0.897-2 2-2h10.667c1.103 0 2 0.897 2 2v5.333c0 1.103-0.897 2-2 2zM19.334 24c-0.368 0-0.667 0.299-0.667 0.667v5.333c0 0.368 0.299 0.667 0.667 0.667h10.667c0.368 0 0.667-0.299 0.667-0.667v-5.333c0-0.368-0.299-0.667-0.667-0.667h-10.667z"></path>
</symbol>
<symbol id="icon-Group-861" viewBox="0 0 32 32">
<path d="M17.778 8.889h4.741c0.327 0 0.593 0.265 0.593 0.593v4.741c0 0.327-0.265 0.593-0.593 0.593h-4.741c-0.327 0-0.593-0.265-0.593-0.593v-4.741c0-0.327 0.265-0.593 0.593-0.593z"></path>
<path d="M1.185 0.593h4.741c0.327 0 0.593 0.265 0.593 0.593v4.741c0 0.327-0.265 0.593-0.593 0.593h-4.741c-0.327 0-0.593-0.265-0.593-0.593v-4.741c0-0.327 0.265-0.593 0.593-0.593z"></path>
<path d="M1.185 8.889h4.741c0.327 0 0.593 0.265 0.593 0.593v4.741c0 0.327-0.265 0.593-0.593 0.593h-4.741c-0.327 0-0.593-0.265-0.593-0.593v-4.741c0-0.327 0.265-0.593 0.593-0.593z"></path>
<path d="M9.481 0.593h4.741c0.327 0 0.593 0.265 0.593 0.593v4.741c0 0.327-0.265 0.593-0.593 0.593h-4.741c-0.327 0-0.593-0.265-0.593-0.593v-4.741c0-0.327 0.265-0.593 0.593-0.593z"></path>
<path d="M17.778 0.593h4.741c0.327 0 0.593 0.265 0.593 0.593v4.741c0 0.327-0.265 0.593-0.593 0.593h-4.741c-0.327 0-0.593-0.265-0.593-0.593v-4.741c0-0.327 0.265-0.593 0.593-0.593z"></path>
<path d="M26.074 0.593h4.741c0.327 0 0.593 0.265 0.593 0.593v4.741c0 0.327-0.265 0.593-0.593 0.593h-4.741c-0.327 0-0.593-0.265-0.593-0.593v-4.741c0-0.327 0.265-0.593 0.593-0.593z"></path>
<path d="M1.185 17.185h4.741c0.327 0 0.593 0.265 0.593 0.593v4.741c0 0.327-0.265 0.593-0.593 0.593h-4.741c-0.327 0-0.593-0.265-0.593-0.593v-4.741c0-0.327 0.265-0.593 0.593-0.593z"></path>
<path d="M9.481 17.185h4.741c0.327 0 0.593 0.265 0.593 0.593v4.741c0 0.327-0.265 0.593-0.593 0.593h-4.741c-0.327 0-0.593-0.265-0.593-0.593v-4.741c0-0.327 0.265-0.593 0.593-0.593z"></path>
<path d="M9.481 25.481h4.741c0.327 0 0.593 0.265 0.593 0.593v4.741c0 0.327-0.265 0.593-0.593 0.593h-4.741c-0.327 0-0.593-0.265-0.593-0.593v-4.741c0-0.327 0.265-0.593 0.593-0.593z"></path>
<path d="M17.778 17.185h4.741c0.327 0 0.593 0.265 0.593 0.593v4.741c0 0.327-0.265 0.593-0.593 0.593h-4.741c-0.327 0-0.593-0.265-0.593-0.593v-4.741c0-0.327 0.265-0.593 0.593-0.593z"></path>
<path d="M26.074 17.185h4.741c0.327 0 0.593 0.265 0.593 0.593v4.741c0 0.327-0.265 0.593-0.593 0.593h-4.741c-0.327 0-0.593-0.265-0.593-0.593v-4.741c0-0.327 0.265-0.593 0.593-0.593z"></path>
<path d="M17.778 25.481h4.741c0.327 0 0.593 0.265 0.593 0.593v4.741c0 0.327-0.265 0.593-0.593 0.593h-4.741c-0.327 0-0.593-0.265-0.593-0.593v-4.741c0-0.327 0.265-0.593 0.593-0.593z"></path>
<path d="M26.074 8.889h4.741c0.327 0 0.593 0.265 0.593 0.593v4.741c0 0.327-0.265 0.593-0.593 0.593h-4.741c-0.327 0-0.593-0.265-0.593-0.593v-4.741c0-0.327 0.265-0.593 0.593-0.593z"></path>
</symbol>
<symbol id="icon-Vector" viewBox="0 0 32 32">
<path d="M31.178 2.867c-0.775-1.027-1.957-1.616-3.243-1.616h-0.545v-0.313c0-0.518-0.42-0.937-0.937-0.937s-0.937 0.42-0.937 0.937v2.5c0 0.518 0.42 0.937 0.937 0.937s0.937-0.42 0.937-0.937v-0.313h0.545c0.693 0 1.329 0.317 1.746 0.87s0.547 1.252 0.357 1.918l-2.488 8.709c-0.694 2.43-2.945 4.128-5.472 4.128s-4.778-1.697-5.472-4.128l-2.488-8.709c-0.19-0.666-0.060-1.365 0.357-1.918s1.054-0.87 1.746-0.87h0.545v0.313c0 0.518 0.42 0.937 0.937 0.937s0.937-0.42 0.937-0.937v-2.5c0-0.518-0.42-0.937-0.937-0.937s-0.937 0.42-0.937 0.937v0.313h-0.545c-1.286 0-2.469 0.589-3.243 1.616s-1.016 2.325-0.663 3.562l2.488 8.709c0.455 1.594 1.395 2.964 2.719 3.962 0.284 0.214 0.579 0.405 0.885 0.575l2.734 6.453v0.677c0 1.831-1.49 3.32-3.32 3.32s-3.32-1.49-3.32-3.32v-6.429c0-2.964-2.411-5.375-5.375-5.375s-5.375 2.411-5.375 5.375v2.219c-2.137 0.435-3.75 2.329-3.75 4.593 0 2.585 2.103 4.687 4.687 4.687s4.687-2.103 4.687-4.687c0-2.264-1.613-4.158-3.75-4.593v-2.219c0-1.93 1.57-3.5 3.5-3.5s3.5 1.57 3.5 3.5v6.429c0 2.865 2.331 5.195 5.195 5.195s5.195-2.331 5.195-5.195v-0.677l2.734-6.453c0.305-0.17 0.601-0.361 0.884-0.575 1.323-0.998 2.263-2.368 2.719-3.962l2.488-8.709c0.353-1.237 0.112-2.535-0.663-3.562zM7.5 27.188c0 1.551-1.262 2.812-2.812 2.812s-2.812-1.262-2.812-2.812c0-1.551 1.262-2.813 2.812-2.813s2.812 1.262 2.812 2.813zM22.078 23.535l-1.278-3.017c0.419 0.071 0.846 0.108 1.278 0.108s0.86-0.037 1.278-0.108l-1.278 3.017z"></path>
</symbol>
<symbol id="icon-edit" viewBox="0 0 32 32">
<path fill="none" stroke="#6ac7be" style="stroke: var(--color1, #6ac7be)" stroke-linejoin="round" stroke-linecap="round" stroke-miterlimit="4" stroke-width="2.3529" d="M24 2.353c0.371-0.371 0.811-0.665 1.295-0.866s1.004-0.304 1.528-0.304c0.524 0 1.044 0.103 1.528 0.304s0.925 0.495 1.295 0.866c0.371 0.371 0.665 0.811 0.866 1.295s0.304 1.004 0.304 1.528c0 0.524-0.103 1.044-0.304 1.528s-0.495 0.925-0.866 1.295l-19.059 19.059-7.765 2.118 2.118-7.765 19.059-19.059z"></path>
</symbol>
<symbol id="icon-trash" viewBox="0 0 32 32">
<path fill="none" stroke="#6ac7be" style="stroke: var(--color1, #6ac7be)" stroke-linejoin="round" stroke-linecap="round" stroke-miterlimit="4" stroke-width="2" d="M4 8h24"></path>
<path fill="none" stroke="#6ac7be" style="stroke: var(--color1, #6ac7be)" stroke-linejoin="round" stroke-linecap="round" stroke-miterlimit="4" stroke-width="2" d="M10.667 8.001v-2.667c0-0.707 0.281-1.386 0.781-1.886s1.178-0.781 1.886-0.781h5.333c0.707 0 1.386 0.281 1.886 0.781s0.781 1.178 0.781 1.886v2.667M25.333 8.001v18.667c0 0.707-0.281 1.385-0.781 1.886s-1.178 0.781-1.886 0.781h-13.333c-0.707 0-1.386-0.281-1.886-0.781s-0.781-1.178-0.781-1.886v-18.667h18.667z"></path>
<path fill="none" stroke="#6ac7be" style="stroke: var(--color1, #6ac7be)" stroke-linejoin="round" stroke-linecap="round" stroke-miterlimit="4" stroke-width="2" d="M13.333 14.667v8"></path>
<path fill="none" stroke="#6ac7be" style="stroke: var(--color1, #6ac7be)" stroke-linejoin="round" stroke-linecap="round" stroke-miterlimit="4" stroke-width="2" d="M18.667 14.667v8"></path>
</symbol>
<symbol id="icon-scope" viewBox="0 0 32 32">
<path fill="#6ac7be" style="fill: var(--color1, #6ac7be)" d="M5.727 5.625h1.71c1.551 0 2.813-1.262 2.813-2.813s-1.262-2.813-2.813-2.813c-1.551 0-2.813 1.262-2.813 2.813v1.238c-2.283 1.009-3.52 2.859-3.5 5.27 0.040 4.648 4.819 10.486 9.125 11.277v2.965c0 4.652 3.785 8.438 8.437 8.438s8.438-3.785 8.438-8.438v-1.094c2.137-0.436 3.75-2.329 3.75-4.593 0-2.585-2.103-4.688-4.688-4.688s-4.688 2.103-4.688 4.688c0 2.264 1.613 4.158 3.75 4.593v1.094c0 3.619-2.944 6.563-6.563 6.563s-6.562-2.944-6.562-6.563v-2.962c4.022-0.729 8.287-5.772 9.005-10.021 0.505-2.989-0.722-5.329-3.38-6.517v-1.25c0-1.551-1.262-2.813-2.813-2.813s-2.813 1.262-2.813 2.813c0 1.551 1.262 2.813 2.813 2.813h1.684c2.15 0.801 3.045 2.361 2.66 4.642-0.707 4.182-5.199 8.546-8.094 8.546-3.347 0-8.153-5.434-8.188-9.508-0.015-1.762 0.903-2.999 2.727-3.679zM6.5 2.813c0-0.517 0.421-0.938 0.938-0.938s0.937 0.421 0.937 0.938c0 0.517-0.421 0.938-0.938 0.938h-0.938v-0.938zM23.375 17.875c0-1.551 1.262-2.813 2.813-2.813s2.812 1.262 2.812 2.813-1.262 2.812-2.812 2.812c-1.551 0-2.813-1.262-2.813-2.812zM15.875 3.75h-0.938c-0.517 0-0.938-0.421-0.938-0.938s0.421-0.938 0.938-0.938c0.517 0 0.938 0.421 0.938 0.938v0.938z"></path>
</symbol>
</defs>
</svg>
